<mxfile host="app.diagrams.net" agent="Mozilla/5.0 (Windows NT 10.0; Win64; x64) AppleWebKit/537.36 (KHTML, like Gecko) Chrome/121.0.0.0 Safari/537.36" version="26.0.11">
  <diagram id="prtHgNgQTEPvFCAcTncT" name="Page-1">
    <mxGraphModel dx="753" dy="657" grid="1" gridSize="10" guides="1" tooltips="1" connect="1" arrows="1" fold="1" page="1" pageScale="1" pageWidth="827" pageHeight="1169" math="0" shadow="0">
      <root>
        <mxCell id="0" />
        <mxCell id="1" parent="0" />
        <mxCell id="C7NSjp74jHAnIL_-quEU-1" value="" style="endArrow=none;dashed=1;html=1;rounded=0;" edge="1" parent="1">
          <mxGeometry width="50" height="50" relative="1" as="geometry">
            <mxPoint x="80" y="120" as="sourcePoint" />
            <mxPoint x="520" y="120" as="targetPoint" />
          </mxGeometry>
        </mxCell>
        <mxCell id="C7NSjp74jHAnIL_-quEU-2" value="" style="endArrow=none;dashed=1;html=1;rounded=0;" edge="1" parent="1">
          <mxGeometry width="50" height="50" relative="1" as="geometry">
            <mxPoint x="80" y="200" as="sourcePoint" />
            <mxPoint x="520" y="200" as="targetPoint" />
          </mxGeometry>
        </mxCell>
        <mxCell id="C7NSjp74jHAnIL_-quEU-3" value="应用接口层" style="text;html=1;align=center;verticalAlign=middle;whiteSpace=wrap;rounded=0;" vertex="1" parent="1">
          <mxGeometry x="60" y="150" width="120" height="20" as="geometry" />
        </mxCell>
        <mxCell id="C7NSjp74jHAnIL_-quEU-4" value="dlt_init" style="rhombus;whiteSpace=wrap;html=1;" vertex="1" parent="1">
          <mxGeometry x="160" y="135" width="90" height="50" as="geometry" />
        </mxCell>
        <mxCell id="C7NSjp74jHAnIL_-quEU-5" value="dlt_log_xxx" style="rhombus;whiteSpace=wrap;html=1;" vertex="1" parent="1">
          <mxGeometry x="260" y="135" width="90" height="50" as="geometry" />
        </mxCell>
        <mxCell id="C7NSjp74jHAnIL_-quEU-6" value="dlt_free" style="rhombus;whiteSpace=wrap;html=1;" vertex="1" parent="1">
          <mxGeometry x="360" y="135" width="90" height="50" as="geometry" />
        </mxCell>
        <mxCell id="C7NSjp74jHAnIL_-quEU-7" value="核心处理层" style="text;html=1;align=center;verticalAlign=middle;whiteSpace=wrap;rounded=0;" vertex="1" parent="1">
          <mxGeometry x="60" y="230" width="120" height="20" as="geometry" />
        </mxCell>
        <mxCell id="C7NSjp74jHAnIL_-quEU-8" value="日志分级/过滤/格式化" style="rounded=1;whiteSpace=wrap;html=1;" vertex="1" parent="1">
          <mxGeometry x="160" y="210" width="150" height="60" as="geometry" />
        </mxCell>
        <mxCell id="C7NSjp74jHAnIL_-quEU-9" value="" style="endArrow=none;dashed=1;html=1;rounded=0;" edge="1" parent="1">
          <mxGeometry width="50" height="50" relative="1" as="geometry">
            <mxPoint x="80" y="280" as="sourcePoint" />
            <mxPoint x="520" y="280" as="targetPoint" />
          </mxGeometry>
        </mxCell>
        <mxCell id="C7NSjp74jHAnIL_-quEU-10" value="存储适配层" style="text;html=1;align=center;verticalAlign=middle;whiteSpace=wrap;rounded=0;" vertex="1" parent="1">
          <mxGeometry x="60" y="310" width="120" height="20" as="geometry" />
        </mxCell>
        <mxCell id="C7NSjp74jHAnIL_-quEU-11" value="内存循环写入" style="rounded=1;whiteSpace=wrap;html=1;" vertex="1" parent="1">
          <mxGeometry x="158" y="290" width="102" height="60" as="geometry" />
        </mxCell>
        <mxCell id="C7NSjp74jHAnIL_-quEU-12" value="文件循环写入" style="rounded=1;whiteSpace=wrap;html=1;" vertex="1" parent="1">
          <mxGeometry x="270" y="290" width="102" height="60" as="geometry" />
        </mxCell>
        <mxCell id="C7NSjp74jHAnIL_-quEU-13" value="网络输出" style="rounded=1;whiteSpace=wrap;html=1;" vertex="1" parent="1">
          <mxGeometry x="380" y="290" width="102" height="60" as="geometry" />
        </mxCell>
        <mxCell id="C7NSjp74jHAnIL_-quEU-14" value="" style="endArrow=none;dashed=1;html=1;rounded=0;" edge="1" parent="1">
          <mxGeometry width="50" height="50" relative="1" as="geometry">
            <mxPoint x="80" y="360" as="sourcePoint" />
            <mxPoint x="520" y="360" as="targetPoint" />
          </mxGeometry>
        </mxCell>
        <mxCell id="C7NSjp74jHAnIL_-quEU-15" value="配置管理层" style="text;html=1;align=center;verticalAlign=middle;whiteSpace=wrap;rounded=0;" vertex="1" parent="1">
          <mxGeometry x="60" y="390" width="120" height="20" as="geometry" />
        </mxCell>
        <mxCell id="C7NSjp74jHAnIL_-quEU-16" value="" style="endArrow=none;dashed=1;html=1;rounded=0;" edge="1" parent="1">
          <mxGeometry width="50" height="50" relative="1" as="geometry">
            <mxPoint x="80" y="440" as="sourcePoint" />
            <mxPoint x="520" y="440" as="targetPoint" />
          </mxGeometry>
        </mxCell>
        <mxCell id="C7NSjp74jHAnIL_-quEU-17" value="XML解析" style="rounded=1;whiteSpace=wrap;html=1;" vertex="1" parent="1">
          <mxGeometry x="160" y="370" width="102" height="60" as="geometry" />
        </mxCell>
        <mxCell id="C7NSjp74jHAnIL_-quEU-18" value="哈希表管理" style="rounded=1;whiteSpace=wrap;html=1;" vertex="1" parent="1">
          <mxGeometry x="270" y="370" width="102" height="60" as="geometry" />
        </mxCell>
      </root>
    </mxGraphModel>
  </diagram>
</mxfile>
